PathFileType	4	(X/Y/Z)	Run_500 03
DataRate	CameraRate	NumFrames	NumMarkers	Units	OrigDataRate	OrigDataStartFrame	OrigNumFrames
100	100	8	42	mm	100	269	128
Frame#	Time	RASI			LPSI			RPSI			RTH1			RTH2			RTH3			LTH1			LTH2			LTH3			RTB1			RTB2			RTB3			LTB1			LTB2			LTB3			RCAL			RTOE			RMT5			LCAL			LTOE			LMT5			LACR			RACR			CLAV			C7			RUA1			RUA2			RUA3			RLEL			RMEL			LUA1			LUA2			LUA3			LLEL			LMEL			RFAsuperior			RFAradius			RFAulna			LFAsuperior			LFAradius			LFAulna			LASI		
		X1	Y1	Z1	X2	Y2	Z2	X3	Y3	Z3	X4	Y4	Z4	X5	Y5	Z5	X6	Y6	Z6	X7	Y7	Z7	X8	Y8	Z8	X9	Y9	Z9	X10	Y10	Z10	X11	Y11	Z11	X12	Y12	Z12	X13	Y13	Z13	X14	Y14	Z14	X15	Y15	Z15	X16	Y16	Z16	X17	Y17	Z17	X18	Y18	Z18	X19	Y19	Z19	X20	Y20	Z20	X21	Y21	Z21	X22	Y22	Z22	X23	Y23	Z23	X24	Y24	Z24	X25	Y25	Z25	X26	Y26	Z26	X27	Y27	Z27	X28	Y28	Z28	X29	Y29	Z29	X30	Y30	Z30	X31	Y31	Z31	X32	Y32	Z32	X33	Y33	Z33	X34	Y34	Z34	X35	Y35	Z35	X36	Y36	Z36	X37	Y37	Z37	X38	Y38	Z38	X39	Y39	Z39	X40	Y40	Z40	X41	Y41	Z41	X42	Y42	Z42	

269	  2.690000	717.508003	995.180584	-212.109161	531.643165	1068.644775	-372.229200	533.392654	1065.529102	-287.298855	700.807633	877.763551	-144.590828	835.291024	811.553829	-157.418232	840.237843	696.229571	-151.708844	621.675031	868.170028	-515.105057	676.623109	744.786398	-493.353737	578.529339	617.633468	-475.909968	809.759608	532.342993	-227.144865	698.331237	546.586540	-174.275449	609.774069	500.814795	-239.739999	569.003494	385.160530	-399.530383	476.458474	342.388158	-456.741304	445.638715	219.664963	-371.326201	448.914207	591.337645	-254.578954	493.524098	362.165865	-264.035980	458.856785	380.278010	-176.195124	256.178889	141.029781	-336.680329	473.740724	 66.352990	-371.049097	421.888411	 49.654922	-446.406267	730.130290	1484.958935	-535.096102	671.124706	1503.284765	-189.029812	767.193396	1462.103179	-323.580027	634.050579	1534.964345	-385.370976	585.549212	1423.971324	-105.562575	508.073054	1355.465512	-144.649051	517.971590	1335.709249	-66.434973	476.570025	1253.770798	-21.384114	447.330824	1235.676030	-93.596216	721.536022	1384.008014	-634.073026	671.812379	1289.850082	-638.488160	733.286956	1277.591799	-689.755550	766.302030	1202.862249	-727.880606	714.671409	1150.375298	-700.869977	490.985411	1173.233631	 -4.402297	585.648739	988.654623	-43.901209	520.935480	980.720383	-18.241335	860.273203	1164.185486	-650.134863	914.630947	1172.579843	-504.012245	931.472922	1113.819745	-535.880059	712.852704	960.318933	-460.761658	
270	  2.700000	718.044822	1008.144709	-212.461650	535.004773	1075.258894	-374.256494	534.090838	1073.281994	-288.915548	705.589891	890.277508	-144.810994	842.424865	829.492237	-160.074333	850.528389	714.273265	-156.179306	619.615973	873.501646	-514.522441	664.641776	747.598623	-493.100966	556.524719	627.175012	-476.442483	833.521906	541.431963	-228.527991	720.910489	543.604803	-175.556887	638.786217	484.985116	-238.390733	534.573674	395.028898	-403.246931	439.380120	356.247456	-459.782381	407.924500	231.592980	-376.769474	466.584053	553.469673	-255.443543	543.458694	333.114450	-259.847414	506.065514	347.713481	-172.584201	217.639552	160.485925	-341.306788	424.116482	 65.914588	-371.832064	372.619269	 50.411333	-447.055445	733.917824	1494.920559	-531.541846	666.918655	1512.328368	-187.667789	765.890481	1471.428327	-319.984612	634.228461	1543.007412	-384.380463	579.216617	1435.057519	-105.739335	501.459541	1369.247157	-144.859866	510.091462	1348.296229	-66.527300	465.454724	1267.187378	-23.479684	436.662201	1250.647745	-96.590298	728.840647	1392.508179	-630.247177	679.808263	1298.127147	-635.702962	742.823057	1285.444082	-684.185149	776.016423	1210.072435	-720.770089	725.127912	1157.325749	-691.818769	478.644892	1186.380577	 -7.164645	573.078092	1005.360671	-42.774765	506.920073	994.049497	-22.618433	870.141362	1179.125672	-640.272957	922.210118	1197.581677	-494.242876	941.506839	1137.848761	-522.515326	712.239887	972.061452	-460.938297	
271	  2.710000	720.000933	1021.069276	-212.562815	538.561472	1082.072074	-375.737381	535.937008	1081.431651	-290.643013	710.038986	904.382716	-144.317357	847.834594	845.898620	-162.443619	858.131670	730.481163	-159.893724	618.127450	879.480901	-514.372485	653.507061	751.989736	-492.744915	535.717178	639.271998	-477.213222	855.386381	548.476496	-227.668047	742.641923	539.499397	-176.140544	668.925892	468.654179	-236.912780	502.294215	407.895074	-407.601401	404.745250	372.267416	-462.947730	375.425948	244.817465	-384.560709	488.896173	513.661589	-256.617873	595.992948	306.425710	-255.744876	555.417384	316.812063	-169.353226	185.772548	182.308264	-346.591508	376.477062	 65.602508	-372.654615	325.268937	 51.795442	-448.070176	737.324674	1505.720937	-527.733218	662.721027	1521.737603	-186.525073	764.444365	1481.568268	-316.390767	634.336248	1551.365727	-383.313608	573.272958	1446.090127	-106.197132	494.821561	1384.118014	-144.327922	502.969581	1360.783917	-66.625041	455.285533	1280.682908	-25.680026	426.772920	1265.926361	-99.710252	735.719692	1402.253866	-626.102084	686.834902	1307.968886	-633.235746	751.355262	1294.801527	-678.611591	784.559930	1218.856184	-714.295967	733.650471	1166.262584	-683.520752	467.516076	1199.760555	 -9.974913	562.076231	1021.541349	-42.848772	494.963014	1007.650024	-26.681867	877.945422	1194.978611	-631.061826	926.936702	1223.106620	-485.574773	947.613250	1162.357743	-509.473705	713.218099	983.215828	-460.690835	
272	  2.720000	722.808252	1033.331124	-212.753540	542.190528	1088.966511	-377.007502	538.874046	1089.523229	-292.505288	714.246687	919.223213	-143.753613	850.846848	860.046054	-163.959468	863.205608	744.398987	-162.467200	616.496391	885.843829	-514.955156	643.064270	757.440368	-492.786656	516.654356	653.091835	-478.029309	875.730653	553.258910	-225.299648	763.907134	533.661044	-175.845842	700.314501	452.036689	-235.079098	473.298328	422.567283	-412.280621	373.824796	390.005487	-466.213625	347.922150	258.994411	-393.486540	515.961889	473.277386	-257.580516	649.927181	282.342832	-251.930612	606.139595	287.711525	-166.568164	160.986506	207.071833	-352.574139	332.276620	 66.179873	-374.095753	279.879508	 54.827529	-448.853969	740.480825	1516.410885	-523.269761	658.783654	1530.912083	-185.511403	762.971696	1491.666856	-312.715078	634.484401	1559.501529	-382.128913	567.717202	1456.793594	-106.972682	488.071884	1399.030770	-143.764894	496.293196	1372.723951	-67.029688	445.820906	1293.785486	-28.180849	417.696969	1280.830961	-102.998622	742.212789	1412.677205	-621.575623	692.927676	1319.095981	-631.089314	758.880962	1304.978131	-673.126425	792.101844	1228.773425	-708.746858	741.006576	1176.264699	-676.852018	457.202423	1212.971863	-12.760452	552.194425	1035.393691	-44.956192	484.927922	1020.985918	-29.839481	883.884832	1211.165645	-622.616747	929.132194	1248.080947	-478.069450	950.484276	1186.368049	-497.187224	715.250859	992.449753	-460.171954	
273	  2.730000	725.870033	1044.186274	-213.551498	545.749161	1096.004810	-378.703502	542.449034	1097.323406	-294.629043	718.230330	933.507881	-143.956840	852.261023	871.548852	-164.462856	865.984997	755.672749	-163.930527	614.120126	892.629196	-516.235545	633.091212	763.707218	-493.789098	499.914067	667.404603	-478.705491	894.605342	556.101223	-222.686737	785.081804	525.575920	-174.906199	732.703567	435.196985	-232.846597	448.433003	437.578907	-416.594701	347.693272	408.428670	-469.467684	323.616981	274.168094	-401.545907	547.281092	433.334451	-257.926983	704.177722	260.756605	-248.617121	657.904563	260.433264	-164.447100	141.121957	234.497427	-358.534200	292.216003	 69.490304	-377.183242	236.404899	 61.810212	-449.577711	743.331029	1526.286308	-517.996010	655.381397	1539.412697	-184.508205	761.587108	1501.026456	-309.095833	634.784808	1567.068633	-380.783546	562.704527	1467.234765	-107.818519	481.590986	1413.272374	-143.564456	489.988161	1384.000237	-67.693991	436.934254	1306.114327	-31.110419	409.612981	1294.731523	-106.530580	748.277209	1423.286662	-616.906059	698.241770	1331.032505	-629.357397	765.563625	1315.497735	-668.323907	798.862350	1239.244533	-704.308767	747.703149	1186.521467	-672.205761	447.511908	1225.624430	-15.516220	543.598318	1047.598577	-47.682867	476.706354	1033.657361	-31.748215	888.191324	1227.096632	-615.036342	929.223429	1271.578478	-471.671031	951.001147	1209.115153	-486.172211	717.480159	999.434259	-459.749297	
274	  2.740000	728.848536	1052.687769	-215.396061	548.978029	1103.211971	-381.079343	546.019183	1104.841004	-297.097377	721.350899	945.886003	-145.168208	853.667530	880.318742	-164.226813	866.847896	763.925332	-164.694975	610.948151	899.971657	-517.865390	623.887702	770.653504	-496.027693	486.306415	680.796785	-479.320895	911.747669	557.411545	-221.002791	806.319640	515.095517	-173.760811	765.551811	418.179891	-230.553313	427.927203	451.647230	-419.883623	326.456411	426.388587	-472.411398	300.502835	290.659326	-407.255301	581.993617	394.188483	-257.447818	758.027667	241.358613	-245.886268	710.753375	235.128214	-163.052290	122.526868	263.452735	-362.718468	255.420476	 78.011282	-382.646892	194.855404	 75.680086	-451.394981	745.724999	1535.063455	-512.272368	652.753028	1546.999748	-183.413293	760.477521	1509.202288	-305.724463	635.211516	1573.849991	-379.275348	558.395681	1477.404739	-108.490349	476.016011	1426.499240	-143.824923	484.203928	1394.595199	-68.535165	428.660600	1317.415642	-34.403943	402.776017	1307.103131	-110.337026	753.822125	1433.718240	-612.498566	703.057952	1343.050860	-628.130160	771.610386	1326.081481	-664.861489	805.029113	1249.738041	-701.020763	753.930913	1196.499354	-669.495909	438.588229	1237.354704	-18.233700	536.658772	1059.380768	-49.224379	470.203349	1045.373806	-32.406003	891.202948	1242.288914	-608.552100	927.558665	1292.862338	-466.232146	949.976042	1230.020014	-476.847668	719.242772	1004.928902	-459.758174	
275	  2.750000	731.496767	1058.246808	-218.282378	551.688013	1110.409293	-383.577647	549.040310	1112.118458	-299.590860	722.685019	955.028050	-146.834115	855.881861	886.316272	-163.596895	866.200455	768.877665	-165.205565	607.591642	907.808443	-519.316524	616.433589	777.961901	-499.160880	476.716641	692.096637	-480.303810	926.682583	557.185839	-220.462296	827.307066	502.463772	-172.613732	798.312013	401.087054	-228.665449	411.292391	464.073344	-422.172281	309.071523	443.527372	-474.761115	277.538538	308.734054	-410.398297	619.257630	355.707508	-256.179328	811.156611	223.743431	-243.683978	764.600024	211.996682	-162.029862	102.454856	293.077562	-363.456979	219.816668	 93.559544	-389.973072	155.205843	 98.237597	-455.216407	747.585040	1542.830219	-506.778469	650.984855	1553.605272	-182.149839	759.861478	1516.032485	-302.638751	635.630740	1579.745861	-377.645064	554.913140	1486.984004	-108.920486	471.739724	1438.496264	-144.529825	479.160599	1404.278225	-69.711233	421.200306	1327.507927	-37.838391	397.376453	1317.579730	-114.309499	758.724197	1443.686087	-608.639543	707.558171	1354.360312	-627.436632	777.085889	1336.429416	-662.798544	810.602742	1259.890861	-698.779476	759.618747	1205.937493	-668.349951	430.828522	1247.859472	-20.846145	531.525349	1070.770127	-49.108871	465.300516	1055.910051	-32.107522	893.294168	1256.395393	-603.457978	924.392091	1311.272548	-461.539834	948.096522	1248.510235	-469.417628	720.397705	1010.000754	-460.287093	
276	  2.760000	733.436450	1061.154792	-221.496593	553.908200	1117.216854	-385.191857	551.264520	1118.971465	-301.322662	722.002557	959.856544	-148.134968	858.254816	889.378424	-162.855299	864.252233	770.484324	-165.748179	604.968905	915.710196	-520.104275	611.742558	785.005969	-502.217184	471.514898	700.796130	-482.093856	938.898419	555.006134	-220.117902	847.360868	488.119463	-171.262291	830.586940	384.084350	-227.260953	397.692808	474.807077	-424.310480	294.152916	460.424607	-476.408186	254.754579	328.294507	-411.769100	658.496421	317.885953	-254.397705	863.490942	207.645242	-241.911776	818.881381	190.985194	-160.885836	 80.795387	323.690857	-360.770407	183.666091	116.175756	-397.313458	117.278245	128.666936	-460.230330	748.969910	1549.810679	-502.085704	649.960239	1559.263380	-180.674584	759.799432	1521.616959	-299.779511	635.933005	1584.805367	-375.933731	552.387237	1495.488407	-109.112113	468.762820	1448.984377	-145.680222	474.977090	1412.563466	-71.540283	414.892043	1336.216260	-41.141688	393.475385	1325.992500	-118.163739	762.799827	1452.894012	-605.375660	711.577013	1364.353865	-627.208347	781.789746	1346.140956	-661.529053	815.296731	1269.467923	-697.381915	764.427979	1214.758962	-668.273453	424.653813	1256.902651	-23.202961	528.070389	1080.810629	-48.004018	461.842686	1065.037619	-31.298803	894.666974	1269.094066	-599.890430	920.095550	1326.118055	-457.400621	945.926180	1263.879793	-463.862553	721.254653	1015.061244	-461.142447	
